<?xml version="1.0" encoding="utf-8"?><!-- Uploaded to: SVG Repo, www.svgrepo.com, Generator: SVG Repo Mixer Tools -->
<svg width="800px" height="800px" viewBox="0 0 24 24" fill="none" xmlns="http://www.w3.org/2000/svg">
<path opacity="0.15" d="M12 11C13.6569 11 15 9.65685 15 8C15 6.34315 13.6569 5 12 5C10.3431 5 9 6.34315 9 8C9 9.65685 10.3431 11 12 11Z" fill="#000000"/>
<path d="M3 19H1V18C1 16.1362 2.27477 14.5701 4 14.126M6 10.8293C4.83481 10.4175 4 9.30621 4 7.99999C4 6.69378 4.83481 5.58254 6 5.1707M21 19H23V18C23 16.1362 21.7252 14.5701 20 14.126M18 5.1707C19.1652 5.58254 20 6.69378 20 7.99999C20 9.30621 19.1652 10.4175 18 10.8293M10 14H14C16.2091 14 18 15.7909 18 18V19H6V18C6 15.7909 7.79086 14 10 14ZM15 8C15 9.65685 13.6569 11 12 11C10.3431 11 9 9.65685 9 8C9 6.34315 10.3431 5 12 5C13.6569 5 15 6.34315 15 8Z" stroke="#000000" stroke-width="1.5" stroke-linecap="round" stroke-linejoin="round"/>
</svg>